<svg width="632" height="463" viewBox="0 0 632 463" fill="none" xmlns="http://www.w3.org/2000/svg">
<path d="M518.181 57.9258H463.559L574.025 235.905C574.025 235.905 576.859 241.774 576.879 244.051C576.898 246.328 574.025 252.196 574.025 252.196L464.375 431.805H518.181L631.5 243.236L518.181 57.9258Z" fill="#40C4FF"/>
<path d="M298.472 462.35C327.135 463.514 376.567 458.351 409.753 430.583C442.939 402.815 461.896 372.157 460.299 332.022C458.702 291.887 438.191 264 409.753 242.422C381.315 220.843 337.196 219.207 322.114 216.356C307.032 213.505 295.645 212.316 283.39 209.84C259.414 204.995 239.776 198.727 234.476 190.29C226.466 177.541 224.125 168.279 223.877 153.228C223.715 143.334 226.009 137.1 228.769 129.606C230.207 125.7 234.262 121.453 232.845 116.166C230.716 108.226 215.494 107.92 200.63 107.621L200.235 107.613C186.353 107.334 173.177 106.292 164.364 116.166C157.738 123.591 157.134 132.996 155.397 141.417C152.329 156.29 152.205 170.685 155.397 184.181C160.395 205.32 163.675 218.593 177.816 235.091C191.957 251.588 210.856 257.793 234.476 267.265C258.095 276.738 312.739 284.371 312.739 284.371C312.739 284.371 353.772 289.446 376.736 306.771C387.659 315.013 389.448 328.935 390.187 340.982C391.355 359.989 373.471 380.375 351.056 389.855C329.395 399.016 303.395 397.621 292.358 395.964C269.899 392.593 255.346 385.905 240.59 369.492C231.755 359.664 228.432 350.976 227.138 341.39C226.272 334.965 228.861 327.24 221.839 321.84C212.637 314.764 198.605 317.275 185.561 316.953C173.801 316.663 163.403 314.704 154.989 323.877C148.104 331.383 151.59 339.815 153.766 348.313C157.2 361.719 164.121 375.896 173.332 391.484C188.383 416.956 202.059 430.923 227.138 444.838C252.217 458.752 269.81 461.187 298.472 462.35Z" fill="#29B6F6"/>
<path d="M303.364 0.500023H36.3709V189.883L0.5 245.68L36.3709 301.477V462.35H207.572L276.868 392.299H103.629V68.1078H298.88C327.53 68.1078 344.103 82.3235 362.877 103.948C381.65 125.572 389.372 173.999 389.372 173.999H456.222C456.222 173.999 449.672 97.2114 420.759 61.1841C391.846 25.1568 362.061 0.500042 303.364 0.500023Z" fill="#01579B"/>
</svg>
