<svg width="878" height="706" viewBox="0 0 878 706" fill="none" xmlns="http://www.w3.org/2000/svg">
<path d="M641.181 57.4258H586.559L697.025 235.405C697.025 235.405 699.859 241.273 699.879 243.551C699.898 245.828 697.025 251.696 697.025 251.696L587.375 431.305H641.181L754.5 242.736L641.181 57.4258Z" fill="#40C4FF"/>
<path d="M421.472 461.85C450.135 463.014 499.567 457.851 532.753 430.083C565.939 402.315 584.895 371.657 583.298 331.522C581.701 291.387 561.191 263.5 532.753 241.922C504.315 220.343 460.196 218.707 445.114 215.856C430.032 213.005 418.645 211.816 406.39 209.34C382.414 204.495 362.776 198.227 357.476 189.79C349.466 177.041 347.125 167.779 346.877 152.728C346.715 142.834 349.009 136.6 351.769 129.106C353.207 125.2 357.262 120.953 355.845 115.666C353.716 107.726 338.494 107.42 323.63 107.121L323.235 107.113C309.353 106.834 296.177 105.792 287.364 115.666C280.738 123.091 280.134 132.496 278.397 140.917C275.329 155.79 275.205 170.185 278.397 183.681C283.395 204.82 286.675 218.093 300.816 234.591C314.957 251.088 333.856 257.293 357.476 266.765C381.095 276.238 435.739 283.871 435.739 283.871C435.739 283.871 476.772 288.946 499.736 306.271C510.659 314.513 512.448 328.435 513.187 340.482C514.355 359.489 496.471 379.875 474.056 389.355C452.395 398.516 426.395 397.121 415.358 395.464C392.899 392.093 378.345 385.405 363.59 368.992C354.755 359.164 351.432 350.476 350.138 340.89C349.272 334.465 351.861 326.74 344.839 321.34C335.637 314.264 321.605 316.775 308.561 316.453C296.801 316.163 286.403 314.204 277.989 323.377C271.104 330.883 274.59 339.315 276.766 347.813C280.2 361.219 287.121 375.396 296.332 390.984C311.382 416.455 325.059 430.423 350.138 444.337C375.217 458.252 392.81 460.687 421.472 461.85Z" fill="#29B6F6"/>
<path d="M426.364 0H159.371V189.383L123.5 245.18L159.371 300.977V461.85H330.572L399.868 391.799H226.629V67.6077H421.88C450.53 67.6077 467.103 81.8235 485.877 103.448C504.65 125.072 512.372 173.499 512.372 173.499H579.222C579.222 173.499 572.672 96.7113 543.759 60.684C514.846 24.6568 485.061 1.89888e-05 426.364 0Z" fill="#01579B"/>
<path d="M22.8623 473.587H70.1035C82.3919 473.587 92.9307 474.726 101.72 477.005C110.509 479.284 118.484 483.556 125.646 489.822C144.282 505.773 153.6 530.024 153.6 562.576C153.6 573.318 152.664 583.125 150.792 591.995C148.92 600.866 146.031 608.882 142.125 616.043C138.219 623.123 133.214 629.471 127.11 635.086C122.309 639.399 117.06 642.858 111.363 645.462C105.667 648.066 99.5225 649.897 92.9307 650.955C86.4202 652.013 79.0553 652.542 70.8359 652.542H23.5947C17.0029 652.542 12.0387 651.565 8.70215 649.612C5.36556 647.578 3.16829 644.77 2.11035 641.189C1.13379 637.527 0.645508 632.807 0.645508 627.029V495.804C0.645508 487.991 2.39518 482.335 5.89453 478.836C9.39388 475.337 15.0498 473.587 22.8623 473.587ZM36.9004 502.273V623.733H64.3662C70.3883 623.733 75.1084 623.571 78.5264 623.245C81.9443 622.92 85.4844 622.106 89.1465 620.804C92.8086 619.502 95.9824 617.671 98.668 615.311C110.794 605.057 116.856 587.397 116.856 562.332C116.856 544.673 114.171 531.448 108.8 522.659C103.51 513.87 96.959 508.296 89.1465 505.936C81.334 503.494 71.8939 502.273 60.8262 502.273H36.9004Z" fill="url(#paint0_linear_1_40)"/>
<path d="M290.44 612.015C290.44 621.211 288.202 629.104 283.727 635.696C279.251 642.207 272.618 647.171 263.829 650.589C255.121 653.925 244.501 655.594 231.969 655.594C220.006 655.594 209.752 653.763 201.207 650.101C192.662 646.438 186.355 641.881 182.286 636.429C178.217 630.895 176.183 625.361 176.183 619.827C176.183 616.165 177.485 613.032 180.089 610.428C182.693 607.824 185.989 606.521 189.977 606.521C193.476 606.521 196.161 607.376 198.033 609.085C199.905 610.794 201.695 613.195 203.404 616.287C206.822 622.228 210.891 626.663 215.611 629.593C220.413 632.522 226.923 633.987 235.143 633.987C241.816 633.987 247.268 632.522 251.5 629.593C255.813 626.582 257.97 623.164 257.97 619.339C257.97 613.479 255.732 609.207 251.256 606.521C246.861 603.836 239.578 601.272 229.405 598.831C217.931 595.983 208.572 593.012 201.329 589.92C194.168 586.746 188.43 582.596 184.117 577.469C179.804 572.342 177.647 566.035 177.647 558.548C177.647 551.875 179.641 545.568 183.629 539.627C187.617 533.686 193.476 528.966 201.207 525.467C209.02 521.886 218.419 520.096 229.405 520.096C238.032 520.096 245.763 520.991 252.599 522.781C259.516 524.572 265.253 526.972 269.811 529.983C274.449 532.994 277.949 536.331 280.309 539.993C282.75 543.655 283.971 547.236 283.971 550.735C283.971 554.56 282.669 557.693 280.064 560.135C277.542 562.576 273.92 563.797 269.2 563.797C265.782 563.797 262.853 562.82 260.411 560.867C258.051 558.914 255.325 555.984 252.232 552.078C249.71 548.823 246.739 546.219 243.321 544.266C239.903 542.312 235.265 541.336 229.405 541.336C223.383 541.336 218.378 542.638 214.391 545.242C210.403 547.765 208.409 550.939 208.409 554.764C208.409 558.263 209.874 561.152 212.804 563.431C215.733 565.628 219.68 567.459 224.645 568.924C229.609 570.389 236.445 572.179 245.152 574.295C255.488 576.818 263.91 579.829 270.421 583.328C277.013 586.827 281.977 590.978 285.313 595.779C288.731 600.499 290.44 605.911 290.44 612.015Z" fill="url(#paint1_linear_1_40)"/>
<path d="M438.146 614.334C438.146 618.484 436.884 622.92 434.361 627.64C431.92 632.36 428.136 636.876 423.009 641.189C417.963 645.421 411.575 648.839 403.844 651.443C396.113 654.048 387.405 655.35 377.721 655.35C357.132 655.35 341.059 649.368 329.503 637.405C317.947 625.361 312.169 609.248 312.169 589.065C312.169 575.394 314.814 563.309 320.104 552.811C325.393 542.312 333.043 534.215 343.053 528.519C353.062 522.741 365.025 519.852 378.941 519.852C387.568 519.852 395.462 521.113 402.623 523.636C409.866 526.159 415.969 529.414 420.934 533.401C425.979 537.389 429.804 541.661 432.408 546.219C435.094 550.695 436.437 554.886 436.437 558.792C436.437 562.78 434.931 566.157 431.92 568.924C428.99 571.691 425.41 573.074 421.178 573.074C418.411 573.074 416.091 572.382 414.22 570.999C412.429 569.534 410.395 567.215 408.116 564.041C404.047 557.856 399.775 553.217 395.299 550.125C390.904 547.033 385.289 545.486 378.453 545.486C368.606 545.486 360.672 549.352 354.649 557.083C348.627 564.733 345.616 575.231 345.616 588.577C345.616 594.843 346.389 600.621 347.936 605.911C349.482 611.119 351.72 615.595 354.649 619.339C357.579 623.001 361.119 625.809 365.27 627.762C369.42 629.633 373.977 630.569 378.941 630.569C385.615 630.569 391.311 629.023 396.031 625.931C400.833 622.838 405.064 618.118 408.727 611.771C410.761 608.027 412.958 605.097 415.318 602.981C417.678 600.866 420.567 599.808 423.985 599.808C428.054 599.808 431.432 601.354 434.117 604.446C436.803 607.539 438.146 610.835 438.146 614.334Z" fill="url(#paint2_linear_1_40)"/>
<path d="M500.401 607.498V635.33C500.401 642.085 498.814 647.171 495.641 650.589C492.467 653.925 488.438 655.594 483.556 655.594C478.754 655.594 474.807 653.885 471.715 650.467C468.622 647.049 467.076 642.003 467.076 635.33V542.557C467.076 527.583 472.488 520.096 483.312 520.096C488.845 520.096 492.833 521.845 495.274 525.345C497.716 528.844 499.059 534.012 499.303 540.848C503.29 534.012 507.359 528.844 511.51 525.345C515.742 521.845 521.357 520.096 528.355 520.096C535.354 520.096 542.149 521.845 548.741 525.345C555.333 528.844 558.629 533.483 558.629 539.261C558.629 543.33 557.205 546.707 554.356 549.393C551.59 551.997 548.578 553.299 545.323 553.299C544.103 553.299 541.132 552.566 536.412 551.102C531.773 549.555 527.664 548.782 524.083 548.782C519.2 548.782 515.213 550.084 512.12 552.688C509.028 555.211 506.627 558.995 504.918 564.041C503.209 569.087 502.029 575.109 501.378 582.107C500.727 589.025 500.401 597.488 500.401 607.498Z" fill="url(#paint3_linear_1_40)"/>
<path d="M610.265 539.017V635.33C610.265 642.003 608.678 647.049 605.504 650.467C602.33 653.885 598.302 655.594 593.419 655.594C588.536 655.594 584.549 653.844 581.456 650.345C578.445 646.845 576.939 641.84 576.939 635.33V539.993C576.939 533.401 578.445 528.437 581.456 525.101C584.549 521.764 588.536 520.096 593.419 520.096C598.302 520.096 602.33 521.764 605.504 525.101C608.678 528.437 610.265 533.076 610.265 539.017ZM593.785 504.593C589.146 504.593 585.159 503.169 581.822 500.32C578.567 497.472 576.939 493.444 576.939 488.235C576.939 483.515 578.608 479.65 581.944 476.639C585.362 473.546 589.309 472 593.785 472C598.098 472 601.923 473.383 605.26 476.15C608.596 478.917 610.265 482.946 610.265 488.235C610.265 493.362 608.637 497.391 605.382 500.32C602.127 503.169 598.261 504.593 593.785 504.593Z" fill="url(#paint4_linear_1_40)"/>
<path d="M675.572 538.772V542.801C681.839 535.07 688.349 529.414 695.104 525.833C701.858 522.171 709.508 520.34 718.053 520.34C728.307 520.34 737.747 522.985 746.373 528.274C754.999 533.564 761.795 541.295 766.759 551.468C771.804 561.64 774.327 573.685 774.327 587.601C774.327 597.854 772.862 607.295 769.933 615.921C767.084 624.466 763.137 631.668 758.092 637.527C753.046 643.305 747.065 647.781 740.147 650.955C733.312 654.048 725.947 655.594 718.053 655.594C708.531 655.594 700.515 653.681 694.005 649.856C687.576 646.032 681.432 640.416 675.572 633.011V683.06C675.572 697.708 670.242 705.032 659.581 705.032C653.315 705.032 649.164 703.12 647.13 699.295C645.095 695.551 644.078 690.058 644.078 682.815V539.017C644.078 532.669 645.462 527.949 648.229 524.856C650.995 521.683 654.78 520.096 659.581 520.096C664.301 520.096 668.126 521.723 671.056 524.979C674.067 528.152 675.572 532.75 675.572 538.772ZM740.88 587.234C740.88 578.445 739.537 570.918 736.852 564.651C734.166 558.304 730.423 553.462 725.621 550.125C720.901 546.707 715.652 544.998 709.874 544.998C700.678 544.998 692.906 548.619 686.559 555.862C680.292 563.105 677.159 573.766 677.159 587.845C677.159 601.11 680.292 611.445 686.559 618.851C692.825 626.175 700.597 629.837 709.874 629.837C715.408 629.837 720.535 628.25 725.255 625.076C729.975 621.821 733.759 616.979 736.607 610.55C739.456 604.121 740.88 596.349 740.88 587.234Z" fill="url(#paint5_linear_1_40)"/>
<path d="M802.892 523.025H806.554V503.006C806.554 497.635 806.676 493.444 806.92 490.433C807.245 487.34 808.059 484.695 809.361 482.498C810.663 480.219 812.535 478.388 814.977 477.005C817.418 475.54 820.144 474.808 823.155 474.808C827.387 474.808 831.212 476.395 834.63 479.568C836.909 481.684 838.333 484.288 838.902 487.381C839.553 490.392 839.879 494.705 839.879 500.32V523.025H852.086C856.806 523.025 860.387 524.165 862.828 526.443C865.351 528.641 866.612 531.489 866.612 534.988C866.612 539.464 864.822 542.597 861.241 544.388C857.742 546.178 852.696 547.073 846.104 547.073H839.879V608.353C839.879 613.561 840.042 617.589 840.367 620.438C840.774 623.204 841.751 625.483 843.297 627.273C844.924 628.982 847.529 629.837 851.109 629.837C853.062 629.837 855.707 629.511 859.044 628.86C862.381 628.128 864.985 627.762 866.856 627.762C869.542 627.762 871.943 628.86 874.059 631.058C876.256 633.174 877.354 635.818 877.354 638.992C877.354 644.363 874.425 648.473 868.565 651.321C862.706 654.17 854.283 655.594 843.297 655.594C832.88 655.594 824.986 653.844 819.615 650.345C814.244 646.845 810.704 642.003 808.995 635.818C807.368 629.633 806.554 621.373 806.554 611.038V547.073H802.159C797.358 547.073 793.696 545.934 791.173 543.655C788.65 541.377 787.389 538.488 787.389 534.988C787.389 531.489 788.691 528.641 791.295 526.443C793.98 524.165 797.846 523.025 802.892 523.025Z" fill="url(#paint6_linear_1_40)"/>
<defs>
<linearGradient id="paint0_linear_1_40" x1="-19.1299" y1="561.042" x2="872.87" y2="561.042" gradientUnits="userSpaceOnUse">
<stop stop-color="#01579B"/>
<stop offset="0.504808" stop-color="#29B6F6"/>
<stop offset="1" stop-color="#40C4FF"/>
</linearGradient>
<linearGradient id="paint1_linear_1_40" x1="-19.1299" y1="561.042" x2="872.87" y2="561.042" gradientUnits="userSpaceOnUse">
<stop stop-color="#01579B"/>
<stop offset="0.504808" stop-color="#29B6F6"/>
<stop offset="1" stop-color="#40C4FF"/>
</linearGradient>
<linearGradient id="paint2_linear_1_40" x1="-19.1299" y1="561.042" x2="872.87" y2="561.042" gradientUnits="userSpaceOnUse">
<stop stop-color="#01579B"/>
<stop offset="0.504808" stop-color="#29B6F6"/>
<stop offset="1" stop-color="#40C4FF"/>
</linearGradient>
<linearGradient id="paint3_linear_1_40" x1="-19.1299" y1="561.042" x2="872.87" y2="561.042" gradientUnits="userSpaceOnUse">
<stop stop-color="#01579B"/>
<stop offset="0.504808" stop-color="#29B6F6"/>
<stop offset="1" stop-color="#40C4FF"/>
</linearGradient>
<linearGradient id="paint4_linear_1_40" x1="-19.1299" y1="561.042" x2="872.87" y2="561.042" gradientUnits="userSpaceOnUse">
<stop stop-color="#01579B"/>
<stop offset="0.504808" stop-color="#29B6F6"/>
<stop offset="1" stop-color="#40C4FF"/>
</linearGradient>
<linearGradient id="paint5_linear_1_40" x1="-19.1299" y1="561.042" x2="872.87" y2="561.042" gradientUnits="userSpaceOnUse">
<stop stop-color="#01579B"/>
<stop offset="0.504808" stop-color="#29B6F6"/>
<stop offset="1" stop-color="#40C4FF"/>
</linearGradient>
<linearGradient id="paint6_linear_1_40" x1="-19.1299" y1="561.042" x2="872.87" y2="561.042" gradientUnits="userSpaceOnUse">
<stop stop-color="#01579B"/>
<stop offset="0.504808" stop-color="#29B6F6"/>
<stop offset="1" stop-color="#40C4FF"/>
</linearGradient>
</defs>
</svg>
